<?xml version="1.0" standalone="yes"?>

<svg version="1.1" viewBox="0.0 0.0 960.0 720.0" fill="none" stroke="none" stroke-linecap="square" stroke-miterlimit="10" xmlns="http://www.w3.org/2000/svg" xmlns:xlink="http://www.w3.org/1999/xlink"><clipPath id="p.0"><path d="m0 0l960.0 0l0 720.0l-960.0 0l0 -720.0z" clip-rule="nonzero"></path></clipPath><g clip-path="url(#p.0)"><path fill="#000000" fill-opacity="0.0" d="m0 0l960.0 0l0 720.0l-960.0 0z" fill-rule="evenodd"></path><path fill="#ff0000" d="m474.1937 311.10504c9.19693 0 15.687134 0.60147095 19.470673 1.8044434c3.7835388 1.1835938 6.693939 3.3955078 8.731232 6.635742c2.0372925 3.2208557 3.0559387 6.955902 3.0559387 11.205109c0 4.482025 -1.0962524 8.207367 -3.2887573 11.175964c-2.1731262 2.968628 -5.413391 5.093231 -9.720795 6.37381c-3.2596436 0.9895325 -8.643921 1.484314 -16.152771 1.484314l-27.67804 0l0 -38.679382zm4.016388 53.784424c8.149139 0 14.387146 0.7178955 18.713959 2.153717c4.3461914 1.4163818 7.741699 3.8902588 10.186432 7.4215393c2.4447327 3.5119019 3.6671143 7.6543884 3.6671143 12.42746c0 4.074585 -0.84402466 7.6737976 -2.5320435 10.797638c-1.6880493 3.1044312 -3.8417664 5.471588 -6.4611206 7.10141c-2.6193848 1.6298218 -5.8790283 2.7940063 -9.778992 3.4924927c-2.211914 0.4074707 -6.05365 0.61117554 -11.525238 0.61117554l-31.869019 0l0 -44.005432zm-46.537506 -68.889465l0 127.99994l48.807617 0c8.14917 0 15.027435 -0.7081909 20.634827 -2.1246033c5.6268005 -1.435791 10.302856 -3.5506897 14.028168 -6.344696c3.7253418 -2.7939758 6.849182 -6.761841 9.371582 -11.903595c2.541748 -5.161133 3.812622 -10.73941 3.812622 -16.734863c0 -7.450653 -2.0858154 -13.911774 -6.2573853 -19.383331c-4.1522217 -5.471588 -10.099152 -9.342438 -17.84085 -11.612549c5.995453 -2.968628 10.477509 -6.8685913 13.446136 -11.69986c2.968628 -4.831299 4.452881 -9.982727 4.452881 -15.454285c0 -5.879059 -1.6782837 -11.505859 -5.034973 -16.880402c-3.3372803 -5.393982 -7.9648438 -9.381226 -13.88269 -11.961792c-5.8984375 -2.5999756 -13.737152 -3.8999634 -23.516113 -3.8999634z" fill-rule="evenodd"></path><path stroke="#000000" stroke-width="1.0" stroke-linejoin="round" stroke-linecap="butt" d="m474.1937 311.10504c9.19693 0 15.687134 0.60147095 19.470673 1.8044434c3.7835388 1.1835938 6.693939 3.3955078 8.731232 6.635742c2.0372925 3.2208557 3.0559387 6.955902 3.0559387 11.205109c0 4.482025 -1.0962524 8.207367 -3.2887573 11.175964c-2.1731262 2.968628 -5.413391 5.093231 -9.720795 6.37381c-3.2596436 0.9895325 -8.643921 1.484314 -16.152771 1.484314l-27.67804 0l0 -38.679382zm4.016388 53.784424c8.149139 0 14.387146 0.7178955 18.713959 2.153717c4.3461914 1.4163818 7.741699 3.8902588 10.186432 7.4215393c2.4447327 3.5119019 3.6671143 7.6543884 3.6671143 12.42746c0 4.074585 -0.84402466 7.6737976 -2.5320435 10.797638c-1.6880493 3.1044312 -3.8417664 5.471588 -6.4611206 7.10141c-2.6193848 1.6298218 -5.8790283 2.7940063 -9.778992 3.4924927c-2.211914 0.4074707 -6.05365 0.61117554 -11.525238 0.61117554l-31.869019 0l0 -44.005432zm-46.537506 -68.889465l0 127.99994l48.807617 0c8.14917 0 15.027435 -0.7081909 20.634827 -2.1246033c5.6268005 -1.435791 10.302856 -3.5506897 14.028168 -6.344696c3.7253418 -2.7939758 6.849182 -6.761841 9.371582 -11.903595c2.541748 -5.161133 3.812622 -10.73941 3.812622 -16.734863c0 -7.450653 -2.0858154 -13.911774 -6.2573853 -19.383331c-4.1522217 -5.471588 -10.099152 -9.342438 -17.84085 -11.612549c5.995453 -2.968628 10.477509 -6.8685913 13.446136 -11.69986c2.968628 -4.831299 4.452881 -9.982727 4.452881 -15.454285c0 -5.879059 -1.6782837 -11.505859 -5.034973 -16.880402c-3.3372803 -5.393982 -7.9648438 -9.381226 -13.88269 -11.961792c-5.8984375 -2.5999756 -13.737152 -3.8999634 -23.516113 -3.8999634z" fill-rule="evenodd"></path></g></svg>

